<svg fill="#ffffff" xmlns="http://www.w3.org/2000/svg"  viewBox="0 0 50 50" width="50px" height="50px"><path d="M 11.5 2 C 9.574219 2 8 3.550781 8 5.46875 L 8 43.90625 C 8 46.167969 9.855469 48 12.125 48 L 37.875 48 C 40.144531 48 42 46.167969 42 43.90625 L 42 14.5 C 42 14.234375 41.90625 13.96875 41.71875 13.78125 L 30.21875 2.28125 C 30.03125 2.09375 29.765625 2 29.5 2 Z M 30 4.90625 L 39.09375 14 L 31.65625 14 C 30.738281 14 30 13.261719 30 12.34375 Z M 17 24 L 33 24 L 33 38 L 17 38 Z M 19 26 L 19 28 L 24 28 L 24 26 Z M 26 26 L 26 28 L 31 28 L 31 26 Z M 19 30 L 19 32 L 24 32 L 24 30 Z M 26 30 L 26 32 L 31 32 L 31 30 Z M 19 34 L 19 36 L 24 36 L 24 34 Z M 26 34 L 26 36 L 31 36 L 31 34 Z"/></svg>